<?xml version="1.0" standalone="no"?><!DOCTYPE svg PUBLIC "-//W3C//DTD SVG 1.1//EN" "http://www.w3.org/Graphics/SVG/1.1/DTD/svg11.dtd"><svg t="1515033478194" class="icon" style="" viewBox="0 0 1024 1024" version="1.1" xmlns="http://www.w3.org/2000/svg" p-id="6140" xmlns:xlink="http://www.w3.org/1999/xlink" width="200" height="200"><defs><style type="text/css"></style></defs><path d="M920.057828 141.453336c-226.620572 0-382.714211-132.285999-384.314187-133.629979-6.655899-5.695914-15.295769-8.511871-24.063636-7.679884C502.912137 0.975461 494.912258 5.327395 489.408342 12.111292 409.217555 112.909768 202.628679 139.533365 104.134169 139.533365 96.326287 140.55735 87.302424 142.861315 81.222516 148.941223 75.142607 154.957132 71.68666 163.213007 71.68666 171.788877l0 370.2344C71.68666 701.316868 315.330975 1023.999988 514.687959 1023.999988c208.764842 0 437.625381-330.107007 437.625381-470.328886L952.31334 173.708848C952.31334 155.917117 937.78556 141.453336 920.057828 141.453336zM887.802316 553.671101c0 111.550313-207.292865 405.817862-373.114357 405.817862-158.589601 0-378.490275-289.787617-378.490275-417.465686L136.197684 203.212402c79.294801-3.711944 275.835828-23.423646 382.330217-127.294075 53.119197 38.33542 187.005172 120.31818 369.338414 129.278045L887.866315 553.671101z" p-id="6141"></path><path d="M366.658198 314.378721c-7.679884-16.063757-26.943592-22.719656-43.00735-15.103772C307.587092 306.954833 300.803194 326.282541 308.483078 342.346298l174.461361 362.682514c5.31192 11.135832 16.51175 18.175725 28.799564 18.239724 0.063999 0 0.191997 0 0.255996 0 12.159816 0 23.423646-6.911895 28.863563-17.85573l180.157275-362.682514c7.93588-15.935759 1.471978-35.263467-14.52778-43.199347-15.935759-7.93588-35.263467-1.407979-43.199347 14.52778L512.447993 617.606134 366.658198 314.378721z" p-id="6142"></path></svg>