<?xml version="1.0" standalone="no"?><!DOCTYPE svg PUBLIC "-//W3C//DTD SVG 1.1//EN" "http://www.w3.org/Graphics/SVG/1.1/DTD/svg11.dtd"><svg t="1515037370076" class="icon" style="" viewBox="0 0 1534 1024" version="1.1" xmlns="http://www.w3.org/2000/svg" p-id="8695" xmlns:xlink="http://www.w3.org/1999/xlink" width="299.609375" height="200"><defs><style type="text/css"></style></defs><path d="M446.778711 1010.411682c13.131739 9.006949 28.531992 13.587119 43.956213 13.587119 12.711111 0 25.412635-3.081009 36.913392-9.250218l239.761487-129.118379 239.801033 129.118379c11.541502 6.169209 24.253811 9.250218 36.919384 9.250218 15.406245 0 30.807697-4.58017 43.992164-13.587119 23.815208-16.448827 35.997837-44.647672 31.227126-72.783004l-46.732836-279.121951 201.60179-201.308189c19.962448-19.853396 26.794355-48.985772 17.704719-75.444584-9.117199-26.413274-32.581284-45.697444-60.826866-49.919302l-275.013938-40.915948L836.518604 42.748256C823.98605 16.680112 797.041898 0 767.409803 0c-29.535028 0-56.497155 16.680112-69.081239 42.748256l-119.533815 248.168053-275.025922 40.915948c-28.262359 4.221858-51.726444 23.506028-60.826866 49.919302-9.088438 26.458812-2.212191 55.591187 17.739472 75.444584l201.516706 201.308189L415.45212 937.628678C410.746121 965.76401 422.909577 993.962855 446.778711 1010.411682L446.778711 1010.411682zM303.248734 405.792059l274.14512-40.720614 48.230799-7.187823 21.171603-43.892699L767.42658 63.874321l120.609952 250.116602 21.189579 43.892699 48.224807 7.187823 274.14512 40.720614L1031.67556 605.217609l-33.583122 33.498037 7.815769 46.74482 46.71486 278.609048L811.026877 834.127856l-43.653025-23.492846-43.651827 23.492846L482.130627 964.115053l46.716059-278.648594 7.815769-46.750812-33.585518-33.498037L303.248734 405.792059 303.248734 405.792059zM303.248734 405.792059" p-id="8696" fill="#707070"></path></svg>