<?xml version="1.0" standalone="no"?><!DOCTYPE svg PUBLIC "-//W3C//DTD SVG 1.1//EN" "http://www.w3.org/Graphics/SVG/1.1/DTD/svg11.dtd"><svg t="1515032928322" class="icon" style="" viewBox="0 0 1026 1024" version="1.1" xmlns="http://www.w3.org/2000/svg" p-id="3098" xmlns:xlink="http://www.w3.org/1999/xlink" width="200.390625" height="200"><defs><style type="text/css"></style></defs><path d="M804.188267 1013.025793 804.188267 1013.025793c-11.015156 0-22.153157-0.818971-33.065942-2.456912-178.351342-18.71348-357.194066-109.004999-502.295197-254.085656C124.074059 611.668733 33.823489 433.153597 14.741472 253.778542c-10.523773-68.240733 12.694046-139.42976 62.282721-188.977486 41.828928-41.808454 97.416563-64.82153 156.546247-64.82153s114.717319 23.013076 156.546247 64.82153c86.319511 86.360459 86.319511 226.834406 0 313.153917-11.097053 11.056104-23.361139 20.904227-36.648938 29.462471 12.223138 62.118927 45.022914 122.129004 93.731195 170.775863 48.667333 48.708282 108.67741 81.508058 170.796337 93.710721 8.537769-13.287799 18.385892-25.531411 29.462471-36.587515 41.808454-41.828928 97.416563-64.882953 156.546247-64.882953 59.150158 0 114.737793 23.054025 156.566721 64.903427 41.808454 41.747031 64.862479 97.314192 64.862479 156.443876 0.020474 59.170632-23.013076 114.758268-64.862479 156.587196C918.926061 990.053665 863.399848 1013.025793 804.188267 1013.025793zM233.549966 61.381853c-42.729796 0-82.900308 16.645579-113.099852 46.824649C84.087815 144.548326 67.769824 194.710281 75.611469 245.855001 93.157916 410.324789 179.354581 580.097413 312.253049 713.057304c133.226057 133.205582 303.28532 219.443196 466.629024 236.600632 9.233895 1.351302 17.32123 1.96553 25.306194 1.96553 42.770744 0 82.859359-16.584156 112.915584-46.660855 30.260967-30.240493 46.906546-70.411005 46.886072-113.140801 0-42.709321-16.645579-82.838885-46.845123-113.017955-30.260967-30.281441-70.431479-46.92702-113.161275-46.92702-42.709321 0-82.900308 16.645579-113.120326 46.906546-11.772704 11.752229-21.702723 25.469988-29.482945 40.764266l-9.7867 19.204863-21.375135-2.682129c-82.593194-10.298556-163.03659-50.919503-226.46587-114.410205-63.470228-63.408806-104.111649-143.811253-114.430679-226.424921l-2.661655-21.293238 19.102491-9.807174c15.335226-7.882593 29.114408-17.853561 40.948534-29.626265 62.323669-62.344144 62.323669-163.85556-0.040949-226.261127C316.450274 78.027432 276.279762 61.381853 233.549966 61.381853z" p-id="3099"></path></svg>